<svg width="20" height="16" viewBox="0 0 20 16" fill="none" xmlns="http://www.w3.org/2000/svg">
<path d="M19.9545 0.364456C19.8937 0.172215 19.7723 0.108135 19.6508 0.0440551C19.3472 -0.0841051 18.8614 0.108135 18.8614 0.108135C18.8614 0.108135 1.31237 6.25983 0.340795 6.90063C0.097901 7.02879 0.0371776 7.15695 0.0371776 7.22103C-0.144993 7.73367 0.401518 7.92591 0.401518 7.92591L4.95577 9.33567H5.19867C6.23097 8.69487 15.5824 2.99174 16.0682 2.7995C16.1289 2.7995 16.1896 2.7995 16.1896 2.86358C15.9467 3.56846 7.8705 10.5532 7.8705 10.5532L7.80977 10.6173L7.38471 14.9747C7.38471 14.9747 7.20254 16.3204 8.59918 14.9747C9.57075 14.0135 10.4816 13.2446 10.9674 12.8601C12.5462 13.8854 14.1857 15.0388 14.9144 15.6796C15.2788 16 15.5824 16 15.8253 16C16.4932 16 16.6754 15.231 16.6754 15.231C16.6754 15.231 19.8937 2.73542 19.9545 1.06934V0.684856C20.0152 0.620776 20.0152 0.492616 19.9545 0.364456Z" fill="#7354F8"/>
</svg>
