<svg width="84" height="52" viewBox="0 0 84 52" fill="none" xmlns="http://www.w3.org/2000/svg">
<path d="M15.3565 35.3902H3.94043V42.4466H15.3565V35.3902Z" fill="#1D1D1B"/>
<path d="M15.3558 9.17938H11.0361V16.2358H15.3558V9.17938Z" fill="#1D1D1B"/>
<path d="M15.3563 0.502071H13.6035V7.55848H15.3563V0.502071Z" fill="#1D1D1B"/>
<path d="M15.356 17.8567H8.6709V24.9131H15.356V17.8567Z" fill="#1D1D1B"/>
<path d="M15.3562 26.7129H6.30566V33.7693H15.3562V26.7129Z" fill="#1D1D1B"/>
<path d="M15.3556 44.0675H0V51.1239H15.3556V44.0675Z" fill="#1D1D1B"/>
<path d="M-6.67572e-06 16.238H9.45898V9.18161H-6.67572e-06V16.238Z" fill="white"/>
<path d="M0.000438213 33.7694H4.72852L4.72852 26.713H0.000438213L0.000438213 33.7694Z" fill="white"/>
<path d="M0.000214577 24.9167H7.09375L7.09375 17.8603H0.000214577L0.000214577 24.9167Z" fill="white"/>
<path d="M0.000541687 7.56071L12.0264 7.56071V0.504299L0.000541687 0.504299V7.56071Z" fill="white"/>
<path d="M2.36546 35.3902H0V42.4466H2.36546V35.3902Z" fill="white"/>
<path d="M27.6085 26.0911H28.4735C30.1186 26.0911 31.2956 26.476 32.0019 27.2458C32.7081 28.0156 33.0598 29.2344 33.0598 30.9052V34.2031H28.9557V31.1385C28.9557 30.2812 28.6465 29.8526 28.0254 29.8526C27.4043 29.8526 27.0951 30.2929 27.0951 31.1705V31.7304C27.0951 32.8297 27.5319 33.8852 28.4083 34.8941L30.8447 37.6963C31.8714 38.883 32.5606 39.9444 32.9123 40.8775C33.264 41.8106 33.4427 42.8515 33.4427 43.9916V45.1463C33.4427 47.0591 33.0087 48.5462 32.1437 49.6134C31.2786 50.6806 29.9796 51.2113 28.2466 51.2113H27.4128C24.1624 51.2113 22.54 49.5201 22.54 46.1348V41.7173H26.7406V45.6391C26.7406 46.6276 27.1036 47.1233 27.8297 47.1233C28.5558 47.1233 28.8876 46.5314 28.8876 45.3446V44.8839C28.8876 43.9596 28.8082 43.2627 28.6465 42.7903C28.4849 42.3179 28.1077 41.7406 27.5092 41.0583L25.0416 38.2561C24.1851 37.3114 23.5923 36.355 23.2633 35.3869C22.9314 34.4188 22.7669 33.2991 22.7669 32.0249V30.9694C22.7669 29.4094 23.1952 28.2051 24.0489 27.3595C24.9027 26.5139 26.0911 26.0911 27.6085 26.0911Z" fill="white"/>
<path d="M38.757 40.5303V50.9137H34.4912V26.3884H38.757V35.8154L41.5479 26.3884H45.7484L42.3817 37.5299L46.1001 50.9137H41.6103L38.757 40.5303Z" fill="white"/>
<path d="M50.6212 26.3884V50.9137H46.3555V26.3884H50.6212Z" fill="white"/>
<path d="M51.9688 26.3884H56.2345V46.4962H60.7555V50.9137H51.9688V26.3884Z" fill="white"/>
<path d="M62.1396 26.3884H66.4054V46.4962H70.9264V50.9137H62.1396V26.3884Z" fill="white"/>
<path d="M77.2032 26.0911H78.0683C79.7133 26.0911 80.8904 26.476 81.5966 27.2458C82.3028 28.0156 82.6545 29.2344 82.6545 30.9052V34.2031H78.5504V31.1385C78.5504 30.2812 78.2413 29.8526 77.6201 29.8526C76.999 29.8526 76.6898 30.2929 76.6898 31.1705V31.7304C76.6898 32.8297 77.1266 33.8852 78.003 34.8941L80.4394 37.6963C81.4661 38.883 82.1553 39.9444 82.507 40.8775C82.8587 41.8106 83.0374 42.8515 83.0374 43.9916V45.1463C83.0374 47.0591 82.6035 48.5462 81.7384 49.6134C80.8733 50.6806 79.5743 51.2113 77.8414 51.2113H77.0075C73.7571 51.2113 72.1348 49.5201 72.1348 46.1348V41.7173H76.3353V45.6391C76.3353 46.6276 76.6983 47.1233 77.4244 47.1233C78.1505 47.1233 78.4824 46.5314 78.4824 45.3446V44.8839C78.4824 43.9596 78.4029 43.2627 78.2413 42.7903C78.0796 42.3179 77.7024 41.7406 77.1039 41.0583L74.6364 38.2561C73.7798 37.3114 73.187 36.355 72.858 35.3869C72.5262 34.4188 72.3617 33.2991 72.3617 32.0249V30.9694C72.3617 29.4094 72.7899 28.2051 73.6437 27.3595C74.4974 26.5139 75.6858 26.0911 77.2032 26.0911Z" fill="white"/>
<path d="M22.4375 24.8195V0.29409H28.8815C30.3337 0.29409 31.3888 0.623584 32.0411 1.28257C32.6935 1.94156 33.0197 3.07291 33.0197 4.67664V7.9395C33.0197 8.86092 32.8126 9.62487 32.3957 10.2314C31.9787 10.835 31.5136 11.214 31.0002 11.3686C32.5829 11.8293 33.3742 13.1152 33.3742 15.2263V19.3143C33.3742 21.2271 33.0537 22.6209 32.4127 23.5015C31.7717 24.3821 30.7875 24.8195 29.463 24.8195H22.4403H22.4375ZM27.7272 4.05265H26.7004V9.8873H27.6619C28.0477 9.8873 28.3341 9.78233 28.527 9.5753C28.7199 9.36536 28.8163 8.9863 28.8163 8.43812V5.37354C28.8163 4.49586 28.4532 4.05556 27.7272 4.05556V4.05265ZM27.7272 13.8412H26.7004V20.9297H27.886C28.2916 20.9297 28.5752 20.8247 28.7369 20.6177C28.8985 20.4107 28.978 19.9762 28.978 19.3172V15.3283C28.978 14.8005 28.8872 14.4215 28.7057 14.1911C28.5242 13.9608 28.198 13.8441 27.7272 13.8441V13.8412Z" fill="#1D1D1B"/>
<path d="M50.59 0.29409V24.8195H46.3242V0.29409H50.59Z" fill="#1D1D1B"/>
<path d="M58.4436 19.4139V14.0078H62.6753V19.5451C62.6753 21.1925 62.2839 22.5513 61.5039 23.6156C60.724 24.6828 59.4675 25.2135 57.7374 25.2135H56.8723C54.9918 25.2135 53.6815 24.6858 52.944 23.6302C52.2066 22.5747 51.8379 21.1692 51.8379 19.4109V5.56931C51.8379 3.92185 52.2378 2.58055 53.0405 1.54833C53.8431 0.516109 55.1195 0 56.8723 0H57.7374C58.7215 0 59.5497 0.142878 60.2219 0.428633C60.8941 0.714388 61.4018 1.12553 61.745 1.66496C62.0854 2.2044 62.3265 2.77008 62.4654 3.362C62.6044 3.95392 62.6753 4.63623 62.6753 5.40602V9.52615H58.4436V5.56931C58.4436 4.62457 58.0805 4.1522 57.3545 4.1522C56.6284 4.1522 56.2965 4.62457 56.2965 5.56931V19.4139C56.2965 20.4023 56.6596 20.898 57.3857 20.898C58.1117 20.898 58.4436 20.4023 58.4436 19.4139Z" fill="#1D1D1B"/>
<path d="M68.13 14.4361V24.8195H63.8643V0.29409H68.13V9.7211L70.9181 0.29409H75.1186L71.752 11.4356L75.4703 24.8195H70.9805L68.1272 14.4361H68.13Z" fill="#1D1D1B"/>
<path d="M40.7794 24.8194H45.0764V14.5001C45.0764 13.6866 44.8835 13.0451 44.5006 12.5727C44.1149 12.1003 43.698 11.7767 43.2498 11.6017C44.512 11.0302 45.1416 9.93094 45.1416 8.3068V4.38496C45.1416 1.66153 43.8369 0.296906 41.2304 0.296906H34.4971V24.8223H38.7628V14.3397H39.6619C40.0902 14.3397 40.3823 14.4389 40.544 14.6372C40.7057 14.8354 40.7851 15.2203 40.7851 15.7918V24.8252L40.7794 24.8194ZM40.5213 9.96885C40.3511 10.1788 40.0392 10.2808 39.591 10.2808H38.7572V4.08462H39.7187C40.1469 4.08462 40.4277 4.17793 40.5695 4.36454C40.7085 4.55116 40.7794 4.91856 40.7794 5.46966V8.79958C40.7794 9.37109 40.6943 9.76182 40.5242 9.96885H40.5213Z" fill="#1D1D1B"/>
</svg>
