<svg width="41" height="32" viewBox="0 0 41 32" fill="none" xmlns="http://www.w3.org/2000/svg">
<path d="M40.9066 0.728911C40.7822 0.34443 40.5332 0.21627 40.2842 0.0881101C39.6618 -0.16821 38.6659 0.21627 38.6659 0.21627C38.6659 0.21627 2.69036 12.5197 0.698629 13.8013C0.200697 14.0576 0.0762141 14.3139 0.0762141 14.4421C-0.297235 15.4673 0.823112 15.8518 0.823112 15.8518L10.1593 18.6713H10.6573C12.7735 17.3897 31.9439 5.98348 32.9397 5.599C33.0642 5.599 33.1887 5.599 33.1887 5.72716C32.6908 7.13692 16.1345 21.1064 16.1345 21.1064L16.01 21.2345L15.1387 29.9494C15.1387 29.9494 14.7652 32.6408 17.6283 29.9494C19.62 28.027 21.4873 26.4891 22.4832 25.7202C25.7197 27.7707 29.0807 30.0776 30.5745 31.3592C31.3214 32 31.9439 32 32.4418 32C33.8111 32 34.1846 30.4621 34.1846 30.4621C34.1846 30.4621 40.7822 5.47084 40.9066 2.13867V1.36971C41.0311 1.24155 41.0311 0.985232 40.9066 0.728911Z" fill="white"/>
</svg>
